<svg id="レイヤー_1" data-name="レイヤー 1" xmlns="http://www.w3.org/2000/svg" viewBox="0 0 177.66 63.28"><defs><style>.cls-1{fill:#231815;stroke:#231815;stroke-miterlimit:10;}</style></defs><path class="cls-1" d="M43.27,15l6.89-7.18a1.73,1.73,0,0,0-.69-2.9A41.72,41.72,0,0,0,22.16,2.22c-11.76,3-18.88,14.3-20.61,21.2-3,11.84.05,31,16.15,37.5,14.16,5.73,27.58.1,35.7-7.17C59.9,48,61,37.14,61.18,32.89a1.7,1.7,0,0,0-1.73-1.76L34,31.38a2.13,2.13,0,0,0-2.11,2.15l0,2.84a2.13,2.13,0,0,0,2.07,2.1l11.28,0a1.2,1.2,0,0,1,1.09,1.64c-.83,2.19-3,6.38-6.77,8.36-1.41.74-8,4.12-14.9,1.36A17.07,17.07,0,0,1,14.57,40c-1.71-4.1-3.2-10.14-.93-16.13,2.19-5.76,8-9.49,13.55-10.83,7.28-1.77,11.91.68,13.88,2.13A1.67,1.67,0,0,0,43.27,15Z" transform="translate(-0.04 -0.5)"/><path class="cls-1" d="M99.76,2.81l24.07,55.48c.89,2,1,4.22-2.87,4.22-16.59,0-32.92.61-49.5,0-2.17-.08-4-2.51-3.11-4.47C76.9,40.16,85.72,20.6,94.27,2.71A3,3,0,0,1,99.76,2.81Zm-5,27.1L87,44.37a1.86,1.86,0,0,0,1.63,2.73H102.1A1.51,1.51,0,0,0,103.5,45l-6.13-15A1.44,1.44,0,0,0,94.77,29.91Z" transform="translate(-0.04 -0.5)"/><path class="cls-1" d="M175.41,17.42a1.82,1.82,0,0,0,1.65-2.51A21.52,21.52,0,0,0,157.79,1c-9.56-.2-19.55,6.48-20.73,16.25-.92,7.54,3.18,15.94,9,18.14,4.17,1.58,7.23.59,11.92,2.07,1,.33,4.54,2.79,4.67,6.39.12,3.43-2.91,7.29-6.57,7.43-2.27.09-6.31-1.46-8.76-4.48a2.75,2.75,0,0,0-2.16-1l-8,.13a1.56,1.56,0,0,0-1.48,2,22.42,22.42,0,0,0,9.09,12.3,19.54,19.54,0,0,0,16,2.31c3.34-.83,10.82-5.48,13.26-10.19,2.06-4,5.26-10.41-.65-18.32-1.28-1.7-3.9-6.64-17.43-7.3a6.7,6.7,0,0,1-6.76-6.25c-.38-3.12,2.56-7.2,6.74-7.7a7.92,7.92,0,0,1,7.42,3.58,2.7,2.7,0,0,0,2.25,1.24Z" transform="translate(-0.04 -0.5)"/></svg>